HIERARCHY
ROOT Root
{
  OFFSET 0.0 0.0 0.0
  CHANNELS 6 Xposition Yposition Zposition Zrotation Yrotation Xrotation
  JOINT Hips
  {
    OFFSET 0.0 100.0 0.0
    CHANNELS 6 Xposition Yposition Zposition Zrotation Yrotation Xrotation
    JOINT Spine1
    {
      OFFSET 5.003913 -0.037094 -0.013727
      CHANNELS 3 Zrotation Yrotation Xrotation
      JOINT Spine2
      {
        OFFSET 7.125363 -1e-06 0.0
        CHANNELS 3 Zrotation Yrotation Xrotation
        JOINT Chest
        {
          OFFSET 7.594027 1e-06 0.0
          CHANNELS 3 Zrotation Yrotation Xrotation
          JOINT Neck1
          {
            OFFSET 26.313086 -0.460272 -0.181672
            CHANNELS 3 Zrotation Yrotation Xrotation
            JOINT Neck2
            {
              OFFSET 8.045911 0.0 0.0
              CHANNELS 3 Zrotation Yrotation Xrotation
              JOINT Head
              {
                OFFSET 6.432774 0.0 0.0
                CHANNELS 3 Zrotation Yrotation Xrotation
                JOINT HeadEnd
                {
                  OFFSET 16.169773 0.06451 0.00362
                  CHANNELS 3 Zrotation Yrotation Xrotation
                }
                JOINT Jaw
                {
                  OFFSET 0.108741 3.12938 0.002639
                  CHANNELS 3 Zrotation Yrotation Xrotation
                }
                JOINT LeftEye
                {
                  OFFSET 4.45173 8.166359 3.206392
                  CHANNELS 3 Zrotation Yrotation Xrotation
                }
                JOINT RightEye
                {
                  OFFSET 4.436895 8.135758 -3.222429
                  CHANNELS 3 Zrotation Yrotation Xrotation
                }
              }
            }
          }
          JOINT LeftShoulder
          {
            OFFSET 23.218927 5.195579 1.621656
            CHANNELS 3 Zrotation Yrotation Xrotation
            JOINT LeftArm
            {
              OFFSET 15.902118 2e-06 -2e-06
              CHANNELS 3 Zrotation Yrotation Xrotation
              JOINT LeftForeArm
              {
                OFFSET 28.739307 0.0 -1e-06
                CHANNELS 3 Zrotation Yrotation Xrotation
                JOINT LeftHand
                {
                  OFFSET 27.093981 -4e-06 0.0
                  CHANNELS 3 Zrotation Yrotation Xrotation
                  JOINT LeftHandThumb1
                  {
                    OFFSET 2.276781 3.380274 0.83384
                    CHANNELS 3 Zrotation Yrotation Xrotation
                    JOINT LeftHandThumb2
                    {
                      OFFSET 4.705309 -1e-06 -1e-06
                      CHANNELS 3 Zrotation Yrotation Xrotation
                      JOINT LeftHandThumb3
                      {
                        OFFSET 2.798515 0.0 3e-06
                        CHANNELS 3 Zrotation Yrotation Xrotation
                        JOINT LeftHandThumbEnd
                        {
                          OFFSET 3.180793 4e-06 -4e-06
                          CHANNELS 3 Zrotation Yrotation Xrotation
                        }
                      }
                    }
                  }
                  JOINT LeftHandIndex1
                  {
                    OFFSET 3.247786 2.352677 0.137192
                    CHANNELS 3 Zrotation Yrotation Xrotation
                    JOINT LeftHandIndex2
                    {
                      OFFSET 6.367095 1e-06 0.0
                      CHANNELS 3 Zrotation Yrotation Xrotation
                      JOINT LeftHandIndex3
                      {
                        OFFSET 3.662364 0.0 0.0
                        CHANNELS 3 Zrotation Yrotation Xrotation
                        JOINT LeftHandIndex4
                        {
                          OFFSET 2.329242 4e-06 -4e-06
                          CHANNELS 3 Zrotation Yrotation Xrotation
                          JOINT LeftHandIndexEnd
                          {
                            OFFSET 2.767823 1e-06 0.0
                            CHANNELS 3 Zrotation Yrotation Xrotation
                          }
                        }
                      }
                    }
                  }
                  JOINT LeftHandMiddle1
                  {
                    OFFSET 3.163612 0.945023 -0.406112
                    CHANNELS 3 Zrotation Yrotation Xrotation
                    JOINT LeftHandMiddle2
                    {
                      OFFSET 6.276789 3e-06 0.0
                      CHANNELS 3 Zrotation Yrotation Xrotation
                      JOINT LeftHandMiddle3
                      {
                        OFFSET 4.35652 -1e-06 4e-06
                        CHANNELS 3 Zrotation Yrotation Xrotation
                        JOINT LeftHandMiddle4
                        {
                          OFFSET 2.996877 0.0 8e-06
                          CHANNELS 3 Zrotation Yrotation Xrotation
                          JOINT LeftHandMiddleEnd
                          {
                            OFFSET 2.323256 3e-06 -4e-06
                            CHANNELS 3 Zrotation Yrotation Xrotation
                          }
                        }
                      }
                    }
                  }
                  JOINT LeftHandRing1
                  {
                    OFFSET 2.882606 -0.309162 0.107445
                    CHANNELS 3 Zrotation Yrotation Xrotation
                    JOINT LeftHandRing2
                    {
                      OFFSET 6.033198 0.0 4e-06
                      CHANNELS 3 Zrotation Yrotation Xrotation
                      JOINT LeftHandRing3
                      {
                        OFFSET 4.350578 3e-06 0.0
                        CHANNELS 3 Zrotation Yrotation Xrotation
                        JOINT LeftHandRing4
                        {
                          OFFSET 2.651321 2e-06 -7e-06
                          CHANNELS 3 Zrotation Yrotation Xrotation
                          JOINT LeftHandRingEnd
                          {
                            OFFSET 1.937663 1e-06 -4e-06
                            CHANNELS 3 Zrotation Yrotation Xrotation
                          }
                        }
                      }
                    }
                  }
                  JOINT LeftHandPinky1
                  {
                    OFFSET 2.865315 -1.525436 0.575687
                    CHANNELS 3 Zrotation Yrotation Xrotation
                    JOINT LeftHandPinky2
                    {
                      OFFSET 5.54936 1e-06 -8e-06
                      CHANNELS 3 Zrotation Yrotation Xrotation
                      JOINT LeftHandPinky3
                      {
                        OFFSET 3.070974 0.0 -4e-06
                        CHANNELS 3 Zrotation Yrotation Xrotation
                        JOINT LeftHandPinky4
                        {
                          OFFSET 1.549672 1e-06 0.0
                          CHANNELS 3 Zrotation Yrotation Xrotation
                          JOINT LeftHandPinkyEnd
                          {
                            OFFSET 1.952123 0.0 0.0
                            CHANNELS 3 Zrotation Yrotation Xrotation
                          }
                        }
                      }
                    }
                  }
                }
              }
            }
          }
          JOINT RightShoulder
          {
            OFFSET 23.161716 5.296122 -1.380114
            CHANNELS 3 Zrotation Yrotation Xrotation
            JOINT RightArm
            {
              OFFSET -16.027195 -2e-06 1.1e-05
              CHANNELS 3 Zrotation Yrotation Xrotation
              JOINT RightForeArm
              {
                OFFSET -28.736639 4e-06 2e-06
                CHANNELS 3 Zrotation Yrotation Xrotation
                JOINT RightHand
                {
                  OFFSET -27.133619 6e-06 0.0
                  CHANNELS 3 Zrotation Yrotation Xrotation
                  JOINT RightHandThumb1
                  {
                    OFFSET -2.274328 -3.351035 -0.83067
                    CHANNELS 3 Zrotation Yrotation Xrotation
                    JOINT RightHandThumb2
                    {
                      OFFSET -4.703594 -3e-06 2e-06
                      CHANNELS 3 Zrotation Yrotation Xrotation
                      JOINT RightHandThumb3
                      {
                        OFFSET -2.794935 -4e-06 -3e-06
                        CHANNELS 3 Zrotation Yrotation Xrotation
                        JOINT RightHandThumbEnd
                        {
                          OFFSET -3.183852 4e-06 1e-06
                          CHANNELS 3 Zrotation Yrotation Xrotation
                        }
                      }
                    }
                  }
                  JOINT RightHandIndex1
                  {
                    OFFSET -3.253496 -2.33755 -0.127667
                    CHANNELS 3 Zrotation Yrotation Xrotation
                    JOINT RightHandIndex2
                    {
                      OFFSET -6.344434 0.0 0.0
                      CHANNELS 3 Zrotation Yrotation Xrotation
                      JOINT RightHandIndex3
                      {
                        OFFSET -3.654871 0.0 -8e-06
                        CHANNELS 3 Zrotation Yrotation Xrotation
                        JOINT RightHandIndex4
                        {
                          OFFSET -2.327586 -1e-06 0.0
                          CHANNELS 3 Zrotation Yrotation Xrotation
                          JOINT RightHandIndexEnd
                          {
                            OFFSET -2.770001 3e-06 8e-06
                            CHANNELS 3 Zrotation Yrotation Xrotation
                          }
                        }
                      }
                    }
                  }
                  JOINT RightHandMiddle1
                  {
                    OFFSET -3.168223 -0.944764 0.411762
                    CHANNELS 3 Zrotation Yrotation Xrotation
                    JOINT RightHandMiddle2
                    {
                      OFFSET -6.266691 -1e-06 -4e-06
                      CHANNELS 3 Zrotation Yrotation Xrotation
                      JOINT RightHandMiddle3
                      {
                        OFFSET -4.348901 0.0 0.0
                        CHANNELS 3 Zrotation Yrotation Xrotation
                        JOINT RightHandMiddle4
                        {
                          OFFSET -3.00024 2e-06 -4e-06
                          CHANNELS 3 Zrotation Yrotation Xrotation
                          JOINT RightHandMiddleEnd
                          {
                            OFFSET -2.321477 -4e-06 -4e-06
                            CHANNELS 3 Zrotation Yrotation Xrotation
                          }
                        }
                      }
                    }
                  }
                  JOINT RightHandRing1
                  {
                    OFFSET -2.885654 0.293261 -0.119232
                    CHANNELS 3 Zrotation Yrotation Xrotation
                    JOINT RightHandRing2
                    {
                      OFFSET -6.032835 -1e-06 -4e-06
                      CHANNELS 3 Zrotation Yrotation Xrotation
                      JOINT RightHandRing3
                      {
                        OFFSET -4.33881 0.0 -4e-06
                        CHANNELS 3 Zrotation Yrotation Xrotation
                        JOINT RightHandRing4
                        {
                          OFFSET -2.654903 -4e-06 -4e-06
                          CHANNELS 3 Zrotation Yrotation Xrotation
                          JOINT RightHandRingEnd
                          {
                            OFFSET -1.935122 0.0 4e-06
                            CHANNELS 3 Zrotation Yrotation Xrotation
                          }
                        }
                      }
                    }
                  }
                  JOINT RightHandPinky1
                  {
                    OFFSET -2.866241 1.503904 -0.60527
                    CHANNELS 3 Zrotation Yrotation Xrotation
                    JOINT RightHandPinky2
                    {
                      OFFSET -5.553177 -2e-06 0.0
                      CHANNELS 3 Zrotation Yrotation Xrotation
                      JOINT RightHandPinky3
                      {
                        OFFSET -3.062664 -1e-06 -4e-06
                        CHANNELS 3 Zrotation Yrotation Xrotation
                        JOINT RightHandPinky4
                        {
                          OFFSET -1.546529 2e-06 4e-06
                          CHANNELS 3 Zrotation Yrotation Xrotation
                          JOINT RightHandPinkyEnd
                          {
                            OFFSET -1.952341 0.0 -4e-06
                            CHANNELS 3 Zrotation Yrotation Xrotation
                          }
                        }
                      }
                    }
                  }
                }
              }
            }
          }
        }
      }
    }
    JOINT LeftLeg
    {
      OFFSET -8.443107 2.567604 10.043214
      CHANNELS 3 Zrotation Yrotation Xrotation
      JOINT LeftShin
      {
        OFFSET 43.229198 1e-06 -1e-06
        CHANNELS 3 Zrotation Yrotation Xrotation
        JOINT LeftFoot
        {
          OFFSET 42.298611 1e-06 1e-06
          CHANNELS 3 Zrotation Yrotation Xrotation
          JOINT LeftToeBase
          {
            OFFSET 14.165858 1e-06 0.0
            CHANNELS 3 Zrotation Yrotation Xrotation
            JOINT LeftToeEnd
            {
              OFFSET 6.7141 -0.234461 0.0
              CHANNELS 3 Zrotation Yrotation Xrotation
            }
          }
        }
      }
    }
    JOINT RightLeg
    {
      OFFSET -8.303923 2.592729 -10.047278
      CHANNELS 3 Zrotation Yrotation Xrotation
      JOINT RightShin
      {
        OFFSET -43.369682 0.0 1e-06
        CHANNELS 3 Zrotation Yrotation Xrotation
        JOINT RightFoot
        {
          OFFSET -42.260784 4e-06 2e-06
          CHANNELS 3 Zrotation Yrotation Xrotation
          JOINT RightToeBase
          {
            OFFSET -14.222245 -2e-06 -1e-06
            CHANNELS 3 Zrotation Yrotation Xrotation
            JOINT RightToeEnd
            {
              OFFSET -6.660062 0.232574 -2e-06
              CHANNELS 3 Zrotation Yrotation Xrotation
            }
          }
        }
      }
    }
  }
}
MOTION
Frames: 5
Frame Time: 0.03333333333333333
0.0 0.0 0.0 0.0 -0.0 0.0 -4.130827 77.291451 79.412064 84.416122 -0.20388 97.820396 -6.408535 -1.328159 -1.996207 -12.601988 -1.695545 -3.78065 13.072895 7.767542 -5.703846 20.464256 3.859406 3.14931 -2.633336 -1.134232 0.531161 -24.596928 -1.876101 -0.380329 6e-06 0.0 -0.0 -0.080351 -0.031327 -0.189291 0.08323 0.038994 -0.196315 0.080952 -0.089664 -0.19743 -15.03139 -74.203026 25.237476 44.280724 -45.941624 -28.390284 131.09317 -2.2599 -0.672328 -3.390045 1.801081 61.311947 17.636639 -26.322737 52.41119 -19.466654 -14.395594 29.410381 1e-06 -8.774822 -4e-06 18.457941 -16.893873 4.82497 -0.609777 -1.795652 -3.889324 -4.807087 -11.046809 -2.93785 6e-06 -20.976013 1e-06 -5.01997 -25.033552 -4.031875 7e-06 -1e-06 0.0 -10.634535 -5.686968 -3.565589 10.573272 -17.922951 -3.113899 2e-06 -13.821209 3e-06 -0.50178 -31.181498 -4.027013 -13.205146 -62.152073 9.418079 -13.982716 -7.150199 -2.875046 13.77273 -8.401491 -3.218239 0.347734 -34.211544 0.771659 -0.963028 -17.733372 2.62102 1e-06 1e-06 1e-06 -17.346415 -20.095211 -4.201784 21.757555 -1.638376 3.866431 -0.0 -6.338823 2e-06 -1.697588 -22.591738 -6.194005 -1e-06 -4e-06 -1e-06 39.10619 -67.477303 157.239044 56.382275 -36.144524 -23.207279 127.102524 0.373112 -1.098376 -8.595498 -3.454502 35.692875 22.182112 -20.375887 49.933323 -16.701811 -16.743521 28.476532 -2e-06 -12.690601 -3e-06 17.336695 -17.647024 2.402058 -0.105922 -1.513858 -4.275883 -5.039041 -5.612873 -2.953558 3e-06 -11.020523 -4e-06 -6.111297 -15.895332 -3.840473 -1e-06 0.0 -1e-06 -10.28337 -5.680288 -4.341838 11.028295 -11.302406 -2.372633 -1.384266 -14.238585 -6.320124 -0.625438 -26.924194 -3.827606 -4.308206 -50.942017 -3.675348 -13.708527 -7.363477 -3.72094 18.141148 -14.052739 -3.242675 6e-06 -18.78727 -4e-06 -0.429712 -8.456045 2.555502 1e-06 0.0 0.0 -15.923539 -20.09449 -5.473586 30.419218 -7.190826 1.735927 2e-06 -8.162927 -2e-06 -1.861902 -22.861471 -6.167946 -1e-06 -3e-06 -0.0 -160.788376 -17.924885 -8.242371 60.637753 -2.305718 1.454073 -69.80867 9.109218 -17.950203 -34.458466 2.183008 1.771686 -0.999998 1e-06 2e-06 -44.400356 -1.551456 -7.469831 88.537247 0.20988 0.14366 -106.669701 -3.858732 -6.08669 -7.905035 0.361132 1.579818 -1.000002 0.0 -0.0 
0.0 0.0 0.0 0.0 -0.0 0.0 -4.312807 78.478745 82.795456 85.742081 0.425031 98.884384 -5.878642 -1.448636 -1.570973 -12.399497 -1.528432 -3.191873 13.464178 6.269472 -5.479778 20.76265 3.90776 3.065002 -2.73884 -1.008625 0.121164 -25.998472 -0.975844 -0.527516 5e-06 0.0 0.0 -0.046953 -0.038662 -0.192714 0.06934 0.02829 -0.20383 0.061632 -0.094735 -0.198724 -22.196728 -77.592453 33.541447 55.866257 -50.225109 -37.206127 119.226692 -2.630472 -1.030927 0.900702 10.638633 67.838165 17.636629 -26.322721 52.411182 -19.466661 -14.395594 29.410389 -1e-06 -8.774821 -2e-06 17.925632 -16.372339 5.241334 -0.609777 -1.795654 -3.889328 -4.80709 -11.046809 -2.937851 3e-06 -20.976019 -1e-06 -5.019969 -25.03356 -4.031883 7e-06 -1e-06 -1e-06 -10.634534 -5.686968 -3.565588 10.573271 -17.922951 -3.113901 2e-06 -13.821211 -0.0 -0.501775 -31.181505 -4.027018 -12.106198 -60.422523 8.540935 -13.982712 -7.150195 -2.875041 13.772728 -8.401493 -3.218243 0.347733 -34.211552 0.771653 -0.963029 -17.73337 2.621019 -2e-06 -0.0 0.0 -17.346418 -20.095219 -4.201782 21.757557 -1.638374 3.866427 1e-06 -6.338824 0.0 -1.697588 -22.591751 -6.19401 -1e-06 -4e-06 -3e-06 37.158436 -69.143044 159.749146 54.739815 -37.800468 -27.542204 115.756493 0.210146 -1.043898 -4.105999 6.993039 39.226715 22.182117 -20.375898 49.933319 -16.701815 -16.743532 28.476532 -2e-06 -12.690605 -2e-06 16.461342 -17.351685 2.720688 -0.105921 -1.513858 -4.27588 -5.039041 -5.61287 -2.953557 1e-06 -11.020525 -1e-06 -6.1113 -15.895334 -3.840472 3e-06 0.0 -2e-06 -10.283375 -5.680291 -4.341837 11.028295 -11.302406 -2.372636 -1.384269 -14.238583 -6.320123 -0.625436 -26.924192 -3.827604 -4.324563 -49.467999 -3.859068 -13.708527 -7.363479 -3.720939 18.141151 -14.052739 -3.242674 5e-06 -18.787271 -2e-06 -0.429715 -8.456043 2.555504 3e-06 -1e-06 0.0 -15.923536 -20.094484 -5.473584 30.419218 -7.190825 1.735925 3e-06 -8.162927 -1e-06 -1.8619 -22.861473 -6.167946 -0.0 -4e-06 -1e-06 -166.623428 -17.482906 -5.363247 70.05101 -2.281299 1.062023 -65.825691 8.219278 -17.291214 -19.951433 1.887682 2.279426 -0.999999 -0.0 0.0 -39.435799 -0.611601 -5.636245 86.361084 0.059738 0.198931 -109.130356 -5.580626 -5.812799 -8.571798 0.421554 1.605995 -1.000002 0.0 -0.0 
0.0 0.0 0.0 0.0 -0.0 0.0 -4.47436 79.186829 85.87841 86.849541 1.423922 100.072029 -4.813945 -1.156063 -1.310358 -12.043483 -1.355508 -2.523323 13.909364 4.504042 -5.017218 21.296076 3.735785 2.658412 -2.809418 -0.723025 -0.286312 -28.610516 -0.37932 -0.666732 7e-06 0.0 -0.0 0.016527 -0.046848 -0.176582 0.097351 0.044397 -0.198331 0.09677 -0.130598 -0.168018 -26.352341 -78.909531 37.741817 70.453011 -52.079334 -49.920925 104.239594 -2.692271 -0.749088 4.489113 14.0424 70.952766 17.636621 -26.322725 52.411182 -19.466665 -14.395602 29.410389 1e-06 -8.774822 -1e-06 17.302866 -16.496508 5.428823 -0.609775 -1.795651 -3.889328 -4.807091 -11.046811 -2.937849 2e-06 -20.976019 0.0 -5.019975 -25.03356 -4.03188 6e-06 0.0 -0.0 -10.634533 -5.686971 -3.565586 10.573272 -17.922951 -3.113901 0.0 -13.821209 1e-06 -0.501781 -31.181505 -4.027016 -11.119786 -59.248394 7.894823 -13.982714 -7.150199 -2.87504 13.772731 -8.401489 -3.218243 0.347729 -34.211555 0.771654 -0.963031 -17.733372 2.621018 -1e-06 1e-06 -1e-06 -17.34642 -20.095219 -4.201777 21.757559 -1.638371 3.866426 -0.0 -6.338824 0.0 -1.697593 -22.591751 -6.194008 0.0 -4e-06 -2e-06 37.026386 -72.80349 159.463989 56.186676 -39.612476 -32.331612 101.533264 0.588592 -0.617418 0.155061 14.944565 44.410011 22.182121 -20.375893 49.933323 -16.701817 -16.74353 28.476538 -4e-06 -12.690604 -3e-06 16.001825 -16.94128 2.778353 -0.105919 -1.513854 -4.275883 -5.039042 -5.612873 -2.953558 3e-06 -11.020525 -3e-06 -6.111298 -15.895334 -3.840472 -2e-06 0.0 2e-06 -10.28337 -5.680285 -4.341839 11.028294 -11.302406 -2.372633 -1.384267 -14.238581 -6.320122 -0.625439 -26.924189 -3.827599 -4.051722 -48.766273 -4.112407 -13.708526 -7.363475 -3.720941 18.141153 -14.052739 -3.242675 8e-06 -18.78727 -3e-06 -0.429713 -8.456043 2.555503 1e-06 -0.0 -1e-06 -15.923541 -20.094482 -5.473583 30.419224 -7.190827 1.735926 0.0 -8.162925 -1e-06 -1.861902 -22.861471 -6.167942 -0.0 -2e-06 -3e-06 -174.71817 -17.061989 -2.115767 82.703316 -2.094632 0.54515 -66.133446 9.690184 -15.900011 -12.579755 1.672756 2.636278 -0.999999 0.0 0.0 -34.764118 1.030946 -3.508618 84.99807 -0.153842 0.135723 -110.685875 -8.068163 -5.990307 -8.773069 0.523561 1.604983 -1.000002 -0.0 0.0 
0.0 0.0 0.0 0.0 -0.0 0.0 -4.714884 79.573799 88.588165 87.773857 2.620028 101.288712 -3.436812 -0.623638 -1.078126 -11.629555 -1.198373 -1.851479 14.549659 2.820695 -4.379808 21.696583 3.30413 2.240521 -2.656661 -0.598223 -0.544727 -32.073349 -0.046176 -1.155657 6e-06 -0.0 0.0 0.060947 -0.04365 -0.122803 0.193318 0.064018 -0.153322 0.198667 -0.147443 -0.100243 -24.567682 -78.52491 35.008533 82.326607 -51.890549 -62.53133 92.838737 -2.577423 0.500838 6.608675 14.955524 71.91658 17.636633 -26.322733 52.41119 -19.466663 -14.395594 29.410389 -1e-06 -8.77482 -3e-06 17.267618 -17.199753 5.374117 -0.609777 -1.795653 -3.889327 -4.807087 -11.046813 -2.937851 4e-06 -20.976019 -0.0 -5.01997 -25.03356 -4.03188 6e-06 -0.0 -0.0 -10.634533 -5.68697 -3.565588 10.573272 -17.922955 -3.113899 4e-06 -13.821211 1e-06 -0.501777 -31.181511 -4.027015 -11.465216 -59.381714 8.199513 -13.982714 -7.150199 -2.875042 13.77273 -8.401493 -3.218241 0.347735 -34.211555 0.771656 -0.963029 -17.733372 2.621021 -0.0 2e-06 0.0 -17.346418 -20.095221 -4.201783 21.757557 -1.638376 3.866429 -0.0 -6.338823 1e-06 -1.697588 -22.591745 -6.194006 -0.0 -4e-06 -2e-06 38.95787 -77.656799 156.583191 59.45433 -40.559738 -36.695774 88.131363 1.351831 0.426645 2.987556 21.064335 51.606422 22.182108 -20.375891 49.933308 -16.701811 -16.743528 28.476528 -3e-06 -12.6906 -0.0 15.80418 -17.000839 2.643908 -0.10592 -1.513858 -4.275879 -5.039041 -5.612872 -2.953557 4e-06 -11.020521 -2e-06 -6.111297 -15.89533 -3.840469 -0.0 0.0 -1e-06 -10.283368 -5.680286 -4.341838 11.028292 -11.302406 -2.372633 -1.384267 -14.238581 -6.320119 -0.625438 -26.924187 -3.8276 -3.866402 -48.617317 -4.409628 -13.708522 -7.363475 -3.720939 18.141146 -14.052738 -3.242674 7e-06 -18.787266 -5e-06 -0.429711 -8.456043 2.555502 1e-06 -0.0 1e-06 -15.923534 -20.094482 -5.473581 30.419207 -7.190825 1.735924 3e-06 -8.162925 0.0 -1.8619 -22.861467 -6.167942 0.0 -1e-06 -2e-06 175.896179 -16.004389 1.039937 94.918343 -1.595214 0.156057 -71.725723 11.608459 -14.511023 -11.248317 1.632818 2.620294 -0.999999 -0.0 0.0 -30.558144 3.026147 -1.454252 84.445404 -0.301853 0.021234 -110.907227 -11.131779 -6.721655 -9.06862 0.653105 1.598403 -1.000002 -0.0 0.0 
0.0 0.0 0.0 0.0 -0.0 0.0 -4.996296 79.759041 91.305153 89.244064 3.538792 102.926857 -2.004421 -0.62144 -0.727846 -11.27344 -1.156875 -1.321953 15.324255 1.398196 -3.877194 21.603273 2.936857 2.210352 -2.474258 -0.6993 -0.785286 -34.576897 0.048531 -2.150643 8e-06 -0.0 0.0 0.068854 -0.031955 -0.080599 0.267136 0.066829 -0.104258 0.269653 -0.129508 -0.060282 -22.331409 -78.184784 31.891609 86.10334 -50.765469 -68.686241 90.326225 -2.108647 0.609688 8.647005 15.761365 71.621475 17.636633 -26.322737 52.411205 -19.466661 -14.395596 29.410395 -0.0 -8.774821 -3e-06 17.550388 -17.367104 5.406032 -0.609777 -1.795654 -3.889328 -4.807089 -11.04681 -2.937852 4e-06 -20.976015 0.0 -5.019969 -25.033556 -4.031884 6e-06 0.0 0.0 -10.634535 -5.686972 -3.56559 10.573275 -17.922951 -3.1139 3e-06 -13.821206 1e-06 -0.501777 -31.181501 -4.027016 -11.747114 -59.503563 8.275322 -13.982714 -7.150199 -2.875043 13.77273 -8.401494 -3.218241 0.347734 -34.211555 0.771656 -0.963029 -17.73337 2.621021 -0.0 2e-06 -0.0 -17.346416 -20.095217 -4.201785 21.757557 -1.638376 3.866429 1e-06 -6.338825 1e-06 -1.697589 -22.591743 -6.194007 -1e-06 -5e-06 -2e-06 38.775772 -80.686646 156.361923 61.767189 -39.716366 -41.269527 82.464294 1.781141 1.734474 5.761855 24.141184 55.382 22.182116 -20.375902 49.933342 -16.701811 -16.74353 28.476538 -2e-06 -12.690602 1e-06 16.271984 -17.033962 2.383753 -0.10592 -1.513857 -4.275881 -5.039041 -5.61287 -2.953559 4e-06 -11.020521 -3e-06 -6.111298 -15.89533 -3.840472 -0.0 0.0 1e-06 -10.283372 -5.680289 -4.341838 11.028294 -11.302407 -2.372634 -1.384269 -14.238583 -6.320122 -0.625437 -26.924194 -3.827604 -4.16326 -49.102345 -4.183117 -13.708526 -7.363477 -3.720942 18.141148 -14.052737 -3.242674 4e-06 -18.78727 -2e-06 -0.429714 -8.456043 2.555502 2e-06 -0.0 0.0 -15.923536 -20.094486 -5.473588 30.419214 -7.190825 1.735927 2e-06 -8.162926 -0.0 -1.861899 -22.861469 -6.167943 -1e-06 -3e-06 -1e-06 165.910492 -12.978736 3.714296 103.760834 -0.786346 0.027653 -77.980927 9.805797 -13.6845 -10.971056 1.65625 2.489737 -0.999998 0.0 0.0 -26.607279 3.914973 -0.045696 84.404503 -0.404939 -0.034224 -110.777641 -13.764769 -6.717666 -9.834926 0.799124 1.615037 -1.000002 -0.0 0.0 
